<?xml version="1.0" standalone="no"?>
<!DOCTYPE svg PUBLIC "-//W3C//DTD SVG 20010904//EN"
 "http://www.w3.org/TR/2001/REC-SVG-20010904/DTD/svg10.dtd">
<svg version="1.0" xmlns="http://www.w3.org/2000/svg"
 width="626.000000pt" height="626.000000pt" viewBox="0 0 626.000000 626.000000"
 preserveAspectRatio="xMidYMid meet">
<metadata>
Created by potrace 1.16, written by Peter Selinger 2001-2019
</metadata>
<g transform="translate(0.000000,626.000000) scale(0.100000,-0.100000)"
fill="#000000" stroke="none">
<path d="M4351 4871 c-18 -43 4 -296 31 -361 39 -91 113 -135 180 -107 46 20
94 84 107 146 19 89 25 256 11 306 -9 32 -16 43 -23 36 -15 -15 -269 -15 -284
0 -7 7 -14 1 -22 -20z m157 -45 c26 -13 65 -29 87 -36 49 -16 52 -21 61 -87 7
-61 -8 -137 -37 -179 -12 -16 -19 -22 -16 -14 2 8 0 23 -5 33 -7 14 -22 17
-78 17 -58 0 -71 -3 -83 -21 -14 -20 -16 -18 -33 28 -27 69 -26 250 1 270 26
19 49 16 103 -11z"/>
<path d="M4780 3329 c-54 -15 -354 -22 -459 -11 -52 5 -101 7 -109 5 -10 -4
-13 -21 -10 -62 l3 -56 -117 -3 -118 -3 0 -209 0 -210 -38 0 -39 0 -6 153 c-4
83 -4 168 -1 188 8 46 -19 103 -44 95 -80 -26 -381 -36 -495 -17 -63 10 -81
-5 -72 -61 4 -21 4 -111 0 -198 l-8 -160 -1133 0 -1134 0 2 -942 3 -941 2125
-1 2125 -1 0 940 0 939 -25 6 c-24 6 -25 8 -28 108 l-3 102 -158 0 -159 0 -7
95 c-4 53 -5 118 -1 145 5 36 2 58 -9 80 -16 32 -27 34 -85 19z"/>
</g>
</svg>
